HIERARCHY
ROOT Hips
{
  OFFSET -80.9321 38.9065 -0.408437
  CHANNELS 6 Xposition Yposition Zposition Zrotation Xrotation Yrotation
  JOINT LeftHip
  {
    OFFSET 3.43 0 0
    CHANNELS 6 Xposition Yposition Zposition Zrotation Xrotation Yrotation
    JOINT LeftKnee
    {
      OFFSET 0 -18.47 0
      CHANNELS 6 Xposition Yposition Zposition Zrotation Xrotation Yrotation
      JOINT LeftAnkle
      {
        OFFSET 0 -17.95 0
        CHANNELS 6 Xposition Yposition Zposition Zrotation Xrotation Yrotation
        End Site
        {
          OFFSET 0 -3.12 0
        }
      }
    }
  }
  JOINT RightHip
  {
    OFFSET -3.43 0 0
    CHANNELS 6 Xposition Yposition Zposition Zrotation Xrotation Yrotation
    JOINT RightKnee
    {
      OFFSET 0 -18.47 0
      CHANNELS 6 Xposition Yposition Zposition Zrotation Xrotation Yrotation
      JOINT RightAnkle
      {
        OFFSET 0 -17.95 0
        CHANNELS 6 Xposition Yposition Zposition Zrotation Xrotation Yrotation
        End Site
        {
          OFFSET 0 -3.12 0
        }
      }
    }
  }
  JOINT Chest
  {
    OFFSET 0 4.57 0
    CHANNELS 6 Xposition Yposition Zposition Zrotation Xrotation Yrotation
    JOINT CS_BVH
    {
      OFFSET 0 6.57 0
      CHANNELS 6 Xposition Yposition Zposition Zrotation Xrotation Yrotation
      JOINT LeftCollar
      {
        OFFSET 1.06 4.19 1.76
        CHANNELS 6 Xposition Yposition Zposition Zrotation Xrotation Yrotation
        JOINT LeftShoulder
        {
          OFFSET 5.81 0 0
          CHANNELS 6 Xposition Yposition Zposition Zrotation Xrotation Yrotation
          JOINT LeftElbow
          {
            OFFSET 0 -12.08 0
            CHANNELS 6 Xposition Yposition Zposition Zrotation Xrotation Yrotation
            JOINT LeftWrist
            {
              OFFSET 0 -9.82 0
              CHANNELS 6 Xposition Yposition Zposition Zrotation Xrotation Yrotation
              End Site
              {
                OFFSET 0 -7.37 0
              }
            }
          }
        }
      }
      JOINT RightCollar
      {
        OFFSET -1.06 4.19 1.76
        CHANNELS 6 Xposition Yposition Zposition Zrotation Xrotation Yrotation
        JOINT RightShoulder
        {
          OFFSET -6.06 0 0
          CHANNELS 6 Xposition Yposition Zposition Zrotation Xrotation Yrotation
          JOINT RightElbow
          {
            OFFSET 0 -11.08 0
            CHANNELS 6 Xposition Yposition Zposition Zrotation Xrotation Yrotation
            JOINT RightWrist
            {
              OFFSET 0 -9.82 0
              CHANNELS 6 Xposition Yposition Zposition Zrotation Xrotation Yrotation
              End Site
              {
                OFFSET 0 -7.14001 0
              }
            }
          }
        }
      }
      JOINT Neck
      {
        OFFSET 0 4.05 0
        CHANNELS 6 Xposition Yposition Zposition Zrotation Xrotation Yrotation
        JOINT Head
        {
          OFFSET 0 5.19 0
          CHANNELS 6 Xposition Yposition Zposition Zrotation Xrotation Yrotation
          End Site
          {
            OFFSET 0 4.14001 0
          }
        }
      }
    }
  }
}
MOTION
Frames:	9
Frame Time:	0.0333333
-0.699829 35.5735 -0.242118 -7.3491 -5.10983 -89.9612 3.43 7.10543e-015 -4.44089e-016 -3.54042 6.05356 0.371908 1.93623e-013 -18.47 -3.63265e-013 -18.3842 47.4986 11.4903 2.73914e-012 -17.95 -2.68402e-012 0.693133 -11.4129 -0.448436 -3.43 -1.42109e-014 1.11022e-016 8.02164 -27.0395 -0.828884 2.62901e-013 -18.47 -3.73479e-013 -4.77582 22.1495 15.4566 3.49831e-012 -17.95 -3.10685e-012 -5.38753 -2.80531 0.58916 -2.88658e-015 4.57 1.17684e-014 -8.0461 9.23224 -4.22582 -1.24345e-014 6.57 1.55431e-015 5.21165 -3.61909 -1.75618 1.06 4.19 1.76 -7.42355 0.918363 8.73507 5.81 -1.42109e-014 1.01807e-013 42.0948 -24.1077 -38.6343 -1.37845e-012 -12.08 6.00986e-012 -2.35205 -23.2281 -6.23128 -1.63425e-011 -9.82 8.71937e-011 1.50597e-009 -2.26711e-009 3.58188e-010 -1.06 4.19 1.76 11.2023 0.887771 -9.47169 -6.06 1.42109e-014 -3.63043e-014 -28.5926 -2.68457 23.0348 -4.61853e-013 -11.08 -5.69145e-012 7.03389 -8.32993 2.48316 5.41434e-012 -9.82 -9.05812e-011 3.75891e-010 5.92156e-009 6.89894e-011 -2.88658e-014 4.05 2.33147e-014 -5.10977 0.684305 -4.52325 -8.70415e-014 5.19 9.33698e-014 7.08029 -8.23563 -6.88695 
-2.77382 35.4922 -0.171036 -7.45031 -1.66997 -92.3844 3.43 7.10543e-015 -4.44089e-016 1.4369 1.88596 -0.885877 1.93623e-013 -18.47 -3.63265e-013 -30.4116 54.9961 23.6063 2.73914e-012 -17.95 -2.68402e-012 0.397824 -8.49138 -0.157651 -3.43 -1.42109e-014 1.11022e-016 11.6445 -27.2242 -0.0563069 2.62901e-013 -18.47 -3.73479e-013 -4.76368 29.8145 19.0077 3.49831e-012 -17.95 -3.10685e-012 -7.03982 -2.73564 0.656854 -2.88658e-015 4.57 1.17684e-014 -0.625184 10.6744 -3.20695 -1.24345e-014 6.57 1.55431e-015 1.96375 -3.24689 -0.87394 1.06 4.19 1.76 -8.75387 0.875164 9.28872 5.81 -1.42109e-014 1.01807e-013 40.362 -21.8971 -39.1344 -1.37845e-012 -12.08 6.00986e-012 -2.23676 -23.1885 -6.15938 -1.63425e-011 -9.82 8.71937e-011 1.50597e-009 -2.26711e-009 3.58188e-010 -1.06 4.19 1.76 11.0018 0.896628 -9.39 -6.06 1.42109e-014 -3.63043e-014 -29.1856 -3.53711 21.4873 -4.61853e-013 -11.08 -5.69145e-012 6.19686 -7.64055 2.56619 5.41434e-012 -9.82 -9.05812e-011 3.75891e-010 5.92156e-009 6.89894e-011 -2.88658e-014 4.05 2.33147e-014 -6.75936 0.272123 -4.51717 -8.70415e-014 5.19 9.33698e-014 7.54584 -7.27106 -7.50225 
-4.80532 35.4352 -0.178331 -7.96753 0.723368 -93.6878 3.43 7.10543e-015 -4.44089e-016 4.63404 -4.35014 -1.04307 1.93623e-013 -18.47 -3.63265e-013 -45.1857 64.3494 37.9191 2.73914e-012 -17.95 -2.68402e-012 -0.0264067 -5.73252 0.0895663 -3.43 -1.42109e-014 1.11022e-016 12.3754 -26.3254 -0.0138156 2.62901e-013 -18.47 -3.73479e-013 -0.637168 35.2181 15.6458 3.49831e-012 -17.95 -3.10685e-012 -8.01104 -3.95795 0.464464 -2.88658e-015 4.57 1.17684e-014 4.22258 13.4821 -3.03494 -1.24345e-014 6.57 1.55431e-015 0.262848 -3.46723 -0.305955 1.06 4.19 1.76 -9.34108 0.85244 9.55027 5.81 -1.42109e-014 1.01807e-013 38.1002 -18.6957 -40.0084 -1.37845e-012 -12.08 6.00986e-012 -1.20101 -23.4388 -5.6309 -1.63425e-011 -9.82 8.71937e-011 1.50597e-009 -2.26711e-009 3.58188e-010 -1.06 4.19 1.76 10.5245 0.930924 -9.01936 -6.06 1.42109e-014 -3.63043e-014 -28.8766 -5.48617 20.4248 -4.61853e-013 -11.08 -5.69145e-012 5.47437 -6.88461 2.40706 5.41434e-012 -9.82 -9.05812e-011 3.75891e-010 5.92156e-009 6.89894e-011 -2.88658e-014 4.05 2.33147e-014 -7.25851 -0.760867 -4.4006 -8.70415e-014 5.19 9.33698e-014 7.59126 -7.46038 -7.51039 
-6.8669 35.452 -0.192572 -8.25457 1.97232 -93.8479 3.43 7.10543e-015 -4.44089e-016 6.12157 -11.7267 -0.0834122 1.93623e-013 -18.47 -3.63265e-013 -61.7256 72.2335 55.3715 2.73914e-012 -17.95 -2.68402e-012 -0.472125 -3.50133 0.287126 -3.43 -1.42109e-014 1.11022e-016 12.9825 -24.2376 -0.772673 2.62901e-013 -18.47 -3.73479e-013 0.0309451 39.2468 17.9326 3.49831e-012 -17.95 -3.10685e-012 -9.46039 -5.37646 0.0543655 -2.88658e-015 4.57 1.17684e-014 5.88377 15.414 -2.765 -1.24345e-014 6.57 1.55431e-015 0.502846 -3.69072 0.31843 1.06 4.19 1.76 -10.2325 0.819867 10.3573 5.81 -1.42109e-014 1.01807e-013 36.2317 -16.9714 -40.4721 -1.37845e-012 -12.08 6.00986e-012 -3.07723 -23.2182 -6.5735 -1.63425e-011 -9.82 8.71937e-011 1.50597e-009 -2.26711e-009 3.58188e-010 -1.06 4.19 1.76 10.2745 0.966261 -8.6402 -6.06 1.42109e-014 -3.63043e-014 -28.8155 -6.71002 20.623 -4.61853e-013 -11.08 -5.69145e-012 5.54218 -6.86382 2.27838 5.41434e-012 -9.82 -9.05812e-011 3.75891e-010 5.92156e-009 6.89894e-011 -2.88658e-014 4.05 2.33147e-014 -7.53941 -0.800877 -4.67385 -8.70415e-014 5.19 9.33698e-014 8.0536 -8.15218 -7.88376 
-9.0217 35.733 -0.192975 -7.92716 3.07774 -93.8707 3.43 7.10543e-015 -4.44089e-016 7.27751 -19.3352 1.01701 1.93623e-013 -18.47 -3.63265e-013 -79.7864 77.0999 75.5488 2.73914e-012 -17.95 -2.68402e-012 -0.852312 -1.90326 0.450861 -3.43 -1.42109e-014 1.11022e-016 13.2876 -21.7262 1.44353 2.62901e-013 -18.47 -3.73479e-013 3.63484 40.2588 12.6742 3.49831e-012 -17.95 -3.10685e-012 -9.90074 -7.49857 -0.457838 -2.88658e-015 4.57 1.17684e-014 7.24952 15.3661 -2.18497 -1.24345e-014 6.57 1.55431e-015 0.6574 -3.25877 0.89437 1.06 4.19 1.76 -11.034 0.778178 10.9185 5.81 -1.42109e-014 1.01807e-013 34.3525 -15.3459 -39.9817 -1.37845e-012 -12.08 6.00986e-012 -6.012 -21.9807 -7.90439 -1.63425e-011 -9.82 8.71937e-011 1.50597e-009 -2.26711e-009 3.58188e-010 -1.06 4.19 1.76 10.0702 0.973186 -8.61063 -6.06 1.42109e-014 -3.63043e-014 -28.7942 -7.81221 21.5529 -4.61853e-013 -11.08 -5.69145e-012 6.01629 -7.18237 2.10405 5.41434e-012 -9.82 -9.05812e-011 3.75891e-010 5.92156e-009 6.89894e-011 -2.88658e-014 4.05 2.33147e-014 -7.78304 -0.522584 -4.86584 -8.70415e-014 5.19 9.33698e-014 8.25456 -7.74834 -8.21579 
-11.2506 36.0752 -0.140504 -7.81753 2.61999 -94.2913 3.43 7.10543e-015 -4.44089e-016 6.83948 -25.8534 2.1375 1.93623e-013 -18.47 -3.63265e-013 -88.6573 78.9999 84.1287 2.73914e-012 -17.95 -2.68402e-012 -0.794785 -1.04983 0.507447 -3.43 -1.42109e-014 1.11022e-016 12.5106 -18.4087 2.57391 2.62901e-013 -18.47 -3.73479e-013 4.85438 40.226 9.4332 3.49831e-012 -17.95 -3.10685e-012 -9.78255 -9.26122 -0.890859 -2.88658e-015 4.57 1.17684e-014 6.68419 16.9987 -1.66949 -1.24345e-014 6.57 1.55431e-015 0.618211 -5.4636 1.91957 1.06 4.19 1.76 -11.6121 0.743474 11.373 5.81 -1.42109e-014 1.01807e-013 32.4794 -12.016 -39.6877 -1.37845e-012 -12.08 6.00986e-012 -7.36805 -21.3027 -8.47311 -1.63425e-011 -9.82 8.71937e-011 1.50597e-009 -2.26711e-009 3.58188e-010 -1.06 4.19 1.76 9.75749 0.97379 -8.54856 -6.06 1.42109e-014 -3.63043e-014 -28.6808 -8.69731 22.7818 -4.61853e-013 -11.08 -5.69145e-012 6.66292 -7.67683 1.97122 5.41434e-012 -9.82 -9.05812e-011 3.75891e-010 5.92156e-009 6.89894e-011 -2.88658e-014 4.05 2.33147e-014 -8.5083 0.344767 -5.02865 -8.70415e-014 5.19 9.33698e-014 8.76759 -7.91591 -8.66383 
-13.4605 36.599 -0.100239 -7.23825 2.06219 -94.663 3.43 7.10543e-015 -4.44089e-016 6.16627 -31.674 3.01002 1.93623e-013 -18.47 -3.63265e-013 -76.1294 80.3489 71.7216 2.73914e-012 -17.95 -2.68402e-012 -0.718258 -0.743885 0.504611 -3.43 -1.42109e-014 1.11022e-016 13.0168 -14.1953 3.93811 2.62901e-013 -18.47 -3.73479e-013 2.20593 38.0534 9.27947 3.49831e-012 -17.95 -3.10685e-012 -8.41751 -10.973 -1.27758 -2.88658e-015 4.57 1.17684e-014 6.35204 16.2295 -0.791698 -1.24345e-014 6.57 1.55431e-015 -0.186045 -5.3801 2.50533 1.06 4.19 1.76 -12.0653 0.713091 11.7703 5.81 -1.42109e-014 1.01807e-013 31.0332 -9.12916 -39.0911 -1.37845e-012 -12.08 6.00986e-012 -8.29203 -20.5482 -8.80273 -1.63425e-011 -9.82 8.71937e-011 1.50597e-009 -2.26711e-009 3.58188e-010 -1.06 4.19 1.76 9.75893 0.958998 -8.63754 -6.06 1.42109e-014 -3.63043e-014 -28.4797 -9.95482 23.9887 -4.61853e-013 -11.08 -5.69145e-012 7.23427 -7.947 1.60136 5.41434e-012 -9.82 -9.05812e-011 3.75891e-010 5.92156e-009 6.89894e-011 -2.88658e-014 4.05 2.33147e-014 -9.3193 0.332755 -5.404 -8.70415e-014 5.19 9.33698e-014 9.38698 -8.2168 -9.34808 
-15.5867 37.1803 -0.0520136 -6.85757 1.08695 -95.2453 3.43 7.10543e-015 -4.44089e-016 4.97845 -35.8422 4.01491 1.93623e-013 -18.47 -3.63265e-013 -44.111 79.0064 39.6633 2.73914e-012 -17.95 -2.68402e-012 -0.612523 -0.940533 0.447887 -3.43 -1.42109e-014 1.11022e-016 13.8042 -9.25616 4.33001 2.62901e-013 -18.47 -3.73479e-013 -3.01134 33.5852 8.21751 3.49831e-012 -17.95 -3.10685e-012 -5.02697 -11.5743 -1.2748 -2.88658e-015 4.57 1.17684e-014 4.4649 15.8071 0.236869 -1.24345e-014 6.57 1.55431e-015 0.276284 -5.49211 3.25665 1.06 4.19 1.76 -13.0461 0.636753 12.5999 5.81 -1.42109e-014 1.01807e-013 30.5066 -7.11669 -38.3008 -1.37845e-012 -12.08 6.00986e-012 -10.1609 -19.5931 -9.56826 -1.63425e-011 -9.82 8.71937e-011 1.50597e-009 -2.26711e-009 3.58188e-010 -1.06 4.19 1.76 9.11459 1.00346 -8.04183 -6.06 1.42109e-014 -3.63043e-014 -28.1244 -10.7528 25.1518 -4.61853e-013 -11.08 -5.69145e-012 7.79048 -8.17359 1.19032 5.41434e-012 -9.82 -9.05812e-011 3.75891e-010 5.92156e-009 6.89894e-011 -2.88658e-014 4.05 2.33147e-014 -10.574 -0.125646 -5.58395 -8.70415e-014 5.19 9.33698e-014 10.2534 -8.03965 -10.0297 
-17.613 37.6987 0.0310624 -6.32085 0.0851879 -96.0028 3.43 7.10543e-015 -4.44089e-016 3.83367 -38.6173 4.72741 1.93623e-013 -18.47 -3.63265e-013 -20.3972 71.8298 16.8732 2.73914e-012 -17.95 -2.68402e-012 -0.594433 -1.6764 0.367565 -3.43 -1.42109e-014 1.11022e-016 13.1846 -4.32156 5.08375 2.62901e-013 -18.47 -3.73479e-013 -4.9892 28.0015 4.48457 3.49831e-012 -17.95 -3.10685e-012 -2.37039 -10.7697 -0.979087 -2.88658e-015 4.57 1.17684e-014 3.82853 15.8049 1.24457 -1.24345e-014 6.57 1.55431e-015 -0.652671 -6.31269 4.18863 1.06 4.19 1.76 -13.779 0.573578 12.9895 5.81 -1.42109e-014 1.01807e-013 30.0621 -5.12418 -37.5314 -1.37845e-012 -12.08 6.00986e-012 -11.1988 -18.8559 -9.94633 -1.63425e-011 -9.82 8.71937e-011 1.50597e-009 -2.26711e-009 3.58188e-010 -1.06 4.19 1.76 8.27577 1.00491 -7.82421 -6.06 1.42109e-014 -3.63043e-014 -27.9028 -11.1833 27.2613 -4.61853e-013 -11.08 -5.69145e-012 8.8163 -8.74292 0.693671 5.41434e-012 -9.82 -9.05812e-011 3.75891e-010 5.92156e-009 6.89894e-011 -2.88658e-014 4.05 2.33147e-014 -12.2745 -0.565872 -5.97296 -8.70415e-014 5.19 9.33698e-014 11.4665 -7.70783 -11.1136 
